<?xml version="1.0" encoding="UTF-8" standalone="no"?>
<svg
   id="control"
   enable-background="new 0 0 70 70"
   viewBox="0 0 70 70"
   version="1.1"
   sodipodi:docname="control.svg"
   inkscape:version="1.4.1-rc (06eac75fbf, 2025-03-29)"
   xmlns:inkscape="http://www.inkscape.org/namespaces/inkscape"
   xmlns:sodipodi="http://sodipodi.sourceforge.net/DTD/sodipodi-0.dtd"
   xmlns="http://www.w3.org/2000/svg"
   xmlns:svg="http://www.w3.org/2000/svg">
  <defs
     id="defs6" />
  <sodipodi:namedview
     id="namedview6"
     pagecolor="#ffffff"
     bordercolor="#000000"
     borderopacity="0.25"
     inkscape:showpageshadow="2"
     inkscape:pageopacity="0.0"
     inkscape:pagecheckerboard="0"
     inkscape:deskcolor="#d1d1d1"
     showgrid="false"
     inkscape:zoom="11.8"
     inkscape:cx="35.042373"
     inkscape:cy="35"
     inkscape:window-width="1920"
     inkscape:window-height="1006"
     inkscape:window-x="0"
     inkscape:window-y="0"
     inkscape:window-maximized="1"
     inkscape:current-layer="control" />
  <path
     d="M35.0019531 14.5605469c-.5517578 0-1-.4472656-1-.9995117L34 7.5419922c0-.5522461.4472656-1.0004883 1-1.0004883l0 0c.5517578 0 1 .4472656 1 .9995117l.0019531 6.019043C36.0019531 14.1123047 35.5546875 14.5605469 35.0019531 14.5605469L35.0019531 14.5605469zM56.3193359 21.9023438c-.5527344 0-1-.4335938-1-.9858398 0-1.1948242-1.4462891-2.1796875-3.1582031-2.1796875H16.9541016c-1.515625 0-2.8251953.7412109-3.1152344 1.762207-.1513672.5317383-.703125.8369141-1.2353516.6889648-.53125-.1508789-.8388672-.7036133-.6884766-1.2348633.5371094-1.8935547 2.609375-3.2163086 5.0390625-3.2163086h35.2070312c2.8447266 0 5.1582031 1.8623047 5.1582031 4.1508789C57.3193359 21.4399414 56.8720703 21.9023438 56.3193359 21.9023438zM30.6308594 53.809082L13.609375 53.7890625c-.5527344-.0004883-1-.4487305-.9990234-1.0009766s.4482422-.9990234 1-.9990234h.0009766l24.8994141.0200195 17.8789062-.0200195h.0009766c.5517578 0 .9990234.4467773 1 .9990234s-.4462891 1.0004883-.9990234 1.0009766L30.6308594 53.809082z"
     id="path1"
     style="stroke:#1f75fe;stroke-opacity:1;fill:#1f75fe;fill-opacity:1" />
  <path
     d="M39.7382812 18.737793H29.3740234c-.5527344 0-1-.4477539-1-1v-.5898438c0-1.847168 1.5458984-4.5874023 3.6806641-4.5874023h5.0039062c2.1347656 0 3.6796875 2.7402344 3.6796875 4.5874023v.5898438C40.7382812 18.2900391 40.2910156 18.737793 39.7382812 18.737793zM30.4169922 16.737793h8.2783203c-.1904297-.9707031-.9726562-2.1772461-1.6367188-2.1772461h-5.0039062C31.3896484 14.5605469 30.6074219 15.7670898 30.4169922 16.737793zM38.515625 53.8056641h-7.8847656c-.5527344 0-1-.4477539-1-1v-4.1552734c0-.5522461.4472656-1 1-1h7.8847656c.5527344 0 1 .4477539 1 1v4.1552734C39.515625 53.3579102 39.0683594 53.8056641 38.515625 53.8056641zM31.6308594 51.8056641h5.8847656v-2.1552734h-5.8847656V51.8056641zM50.6142578 26.0625h-6.9609375c-.5527344 0-1-.4477539-1-1s.4472656-1 1-1h6.9609375c.5527344 0 1 .4477539 1 1S51.1669922 26.0625 50.6142578 26.0625zM25.5537109 26.078125H18.59375c-.5527344 0-1-.4477539-1-1s.4472656-1 1-1h6.9599609c.5527344 0 1 .4477539 1 1S26.1064453 26.078125 25.5537109 26.078125zM34.2353516 38.9511719c-.5527344 0-1-.4477539-1-1v-3.2768555c0-.5522461.4472656-1 1-1s1 .4477539 1 1v3.2768555C35.2353516 38.503418 34.7880859 38.9511719 34.2353516 38.9511719zM36.8740234 42.6601562h-4.5517578c-.5527344 0-1-.4477539-1-1s.4472656-1 1-1h4.5517578c.5527344 0 1 .4477539 1 1S37.4267578 42.6601562 36.8740234 42.6601562zM65.5722656 63.0297852c-.0830078 0-.1660156-.0097656-.2490234-.03125-.5351562-.137207-.8574219-.6821289-.7207031-1.2172852l.546875-2.1323242C65.7158203 57.6318359 66 55.5253906 66 53.3671875v-13.15625c0-4.5292969-2.3515625-10.046875-4.1201172-13.8027344-.15625-.3359375-.3251953-.6474609-.5029297-.9316406l-2.4501953-3.8774414c-.140625-.2231445-.5273438-.7270508-1.0576172-.5732422-.1826172.043457-.3369141.1508789-.4824219.3100586-.3974609.4257812-.6210938 1.0732422-.6210938 1.7841797 0 .4853516.1054688.9418945.3144531 1.3564453.5292969 1.0585938 1.0146484 2.1694336 1.4423828 3.3037109 1.3212891 3.4394531 2.2353516 7.7734375 2.2216797 10.5341797l-.0146484 1.6938477c-.0136719 1.9477539-.2382812 3.9238281-.6679688 5.8725586l-.1367188.6601562c-.0791016.3798828-.3701172.6791992-.7470703.7695312-.3759766.0913086-.7714844-.0463867-1.0136719-.3486328L53.1875 40.7338867c.0117188.0136719-.1162109-.0854492-.2568359-.0854492-.0107422 0-.0224609.0009766-.0341797.0024414-.2050781.0268555-.5693359.3012695-.9785156.9916992-.5986328 1.0117188.7773438 3.8740234 1.8955078 5.4897461l3.3574219 5.0263672c1.1865234 1.7749023 1.8730469 4.0576172 1.9335938 6.4267578l.0419922 3.4321289c.0068359.5522461-.4355469 1.0053711-.9873047 1.012207-.0048828 0-.0087891 0-.0126953 0-.546875 0-.9931641-.4394531-1-.987793l-.0419922-3.4189453c-.0507812-1.9829102-.6171875-3.8886719-1.5957031-5.3530273l-3.3486328-5.0126953c-.5761719-.831543-3.4199219-5.1713867-1.9628906-7.6337891.7138672-1.2050781 1.5556641-1.8657227 2.5019531-1.9633789 1.1640625-.1220703 1.9140625.6704102 1.9970703.7612305l3.6845703 4.609375c.2226562-1.3500977.3388672-2.7016602.3486328-4.0385742l.0146484-1.6914062c.0126953-2.4956055-.8662109-6.6220703-2.0908203-9.809082-.4052734-1.0756836-.8632812-2.1230469-1.3613281-3.1181641-.3486328-.6943359-.5263672-1.453125-.5263672-2.253418 0-1.2124023.4199219-2.3574219 1.1523438-3.1411133.4169922-.4575195.9199219-.7675781 1.4462891-.8876953 1.1748047-.3447266 2.4726562.2104492 3.2529297 1.4379883l2.4521484 3.8813477c.2236328.3569336.4326172.7431641.6220703 1.1499023C65.5400391 29.4858398 68 35.2802734 68 40.2109375v13.15625c0 2.3413086-.3095703 4.6293945-.9189453 6.8007812l-.5410156 2.1103516C66.4238281 62.7299805 66.0175781 63.0297852 65.5722656 63.0297852z"
     id="path2"
     style="stroke:#1f75fe;stroke-opacity:1;fill:#1f75fe;fill-opacity:1" />
  <path
     d="M67 68H53.7148438c-.5527344 0-1-.4477539-1-1v-4.9780273c0-.5522461.4472656-1 1-1H67c.5527344 0 1 .4477539 1 1V67C68 67.5522461 67.5527344 68 67 68zM54.7148438 66H66v-2.9780273H54.7148438V66zM4.4287109 63.0297852c-.4453125 0-.8515625-.2998047-.9677734-.7514648l-.546875-2.1323242C2.3095703 57.9941406 2 55.7060547 2 53.3671875v-13.15625c0-4.9267578 2.4619141-10.7236328 4.3134766-14.6552734.1826172-.3935547.390625-.7792969.6162109-1.140625l2.4541016-3.8842773c.5722656-.894043 1.4238281-1.4492188 2.3388672-1.5288086.8740234-.074707 1.7158203.2729492 2.3671875.9833984.7265625.7758789 1.1464844 1.9208984 1.1464844 3.1347656 0 .8017578-.1767578 1.5605469-.5263672 2.2548828-1.8964844 3.7724609-3.4775391 9.6923828-3.453125 12.9267578l.0146484 1.6889648c.0097656 1.3413086.1259766 2.6948242.3476562 4.0405273l3.6425781-4.5595703c.1259766-.1411133.8867188-.9291992 2.0400391-.8115234.9462891.0976562 1.7880859.7583008 2.5009766 1.9633789 1.4580078 2.4624023-1.3857422 6.8022461-1.9707031 7.6474609l-3.3398438 4.9990234c-.9785156 1.4643555-1.5449219 3.3701172-1.5957031 5.3662109l-.0419922 3.4057617c-.0068359.5483398-.453125.987793-1 .987793-.0039062 0-.0078125 0-.0126953 0-.5517578-.0068359-.9941406-.4599609-.9873047-1.012207l.0419922-3.4189453c.0605469-2.3823242.7470703-4.6650391 1.9335938-6.4399414l3.3486328-5.0126953c1.1259766-1.6308594 2.5-4.4951172 1.9033203-5.5039062-.4140625-.6992188-.78125-.9711914-.9863281-.9921875-.1328125-.0136719-.3134766.1191406-.3144531.1206055l-4.9443359 6.1914062c-.2412109.3022461-.640625.4404297-1.0126953.3486328-.3769531-.0898438-.6679688-.3886719-.7470703-.7680664l-.140625-.6723633c-.4267578-1.9350586-.6513672-3.9111328-.6650391-5.8632812l-.0146484-1.6884766c-.0302734-3.9848633 1.8798828-10.2871094 3.6660156-13.8417969.2080078-.4135742.3134766-.8696289.3134766-1.3564453 0-.7119141-.2236328-1.3588867-.6132812-1.7753906-.1640625-.1791992-.4277344-.378418-.7275391-.3505859-.2919922.0253906-.5917969.2475586-.8242188.6098633l-2.4472656 3.875C8.4443359 25.7666016 8.2753906 26.0791016 8.125 26.4033203 6.3525391 30.1660156 4 35.6850586 4 40.2109375v13.15625c0 2.1557617.2841797 4.262207.8457031 6.2597656L5.3984375 61.78125c.1367188.5351562-.1855469 1.0800781-.7207031 1.2172852C4.5947266 63.0200195 4.5107422 63.0297852 4.4287109 63.0297852z"
     id="path3"
     style="stroke:#1f75fe;stroke-opacity:1;fill:#1f75fe;fill-opacity:1" />
  <path
     d="M16.2861328 68H3c-.5527344 0-1-.4477539-1-1v-4.9780273c0-.5522461.4472656-1 1-1h13.2861328c.5527344 0 1 .4477539 1 1V67C17.2861328 67.5522461 16.8388672 68 16.2861328 68zM4 66h11.2861328v-2.9780273H4V66zM21.9501953 45.2626953c-1.1630859 0-2.2871094-.2265625-3.3408203-.6738281-.5087891-.2158203-.7460938-.8027344-.5302734-1.3110352.2167969-.5087891.8027344-.7446289 1.3115234-.5297852.8046875.3413086 1.6660156.5146484 2.5595703.5146484 3.6279297 0 6.5800781-2.9233398 6.5800781-6.5166016 0-3.5874023-2.9521484-6.5063477-6.5800781-6.5063477-3.6337891 0-6.5898438 2.9189453-6.5898438 6.5063477 0 1.2216797.3505859 2.4160156 1.0126953 3.4526367.296875.4658203.1611328 1.0839844-.3046875 1.3813477-.4628906.2973633-1.0839844.1611328-1.3808594-.3041992-.8681641-1.359375-1.3271484-2.9257812-1.3271484-4.5297852 0-4.6904297 3.8535156-8.5063477 8.5898438-8.5063477 4.7314453 0 8.5800781 3.815918 8.5800781 8.5063477C30.5302734 41.4423828 26.6816406 45.2626953 21.9501953 45.2626953zM48.1699219 45.2626953c-4.7304688 0-8.5791016-3.8203125-8.5791016-8.5166016 0-4.6904297 3.8486328-8.5063477 8.5791016-8.5063477 4.7373047 0 8.5908203 3.815918 8.5908203 8.5063477 0 1.6479492-.4794922 3.2460938-1.3857422 4.6206055-.3037109.4609375-.9228516.5898438-1.3857422.284668-.4609375-.3041992-.5878906-.9243164-.2841797-1.3852539.6904297-1.0473633 1.0556641-2.2646484 1.0556641-3.5200195 0-3.5874023-2.9570312-6.5063477-6.5908203-6.5063477-3.6279297 0-6.5791016 2.9189453-6.5791016 6.5063477 0 3.5932617 2.9511719 6.5166016 6.5791016 6.5166016.8476562 0 1.6767578-.1621094 2.4658203-.4814453.5068359-.2089844 1.09375.0390625 1.3017578.5512695.2070312.5117188-.0390625 1.0947266-.5517578 1.3022461C50.3574219 45.0512695 49.2753906 45.2626953 48.1699219 45.2626953z"
     id="path4"
     style="stroke:#1f75fe;stroke-opacity:1;fill:#1f75fe;fill-opacity:1" />
  <path
     d="M50.7822266 36.9702148h-6.4482422c-.5527344 0-1-.4477539-1-1s.4472656-1 1-1h6.4482422c.5527344 0 1 .4477539 1 1S51.3349609 36.9702148 50.7822266 36.9702148zM35 8.5410156c-1.8154297 0-3.2919922-1.4672852-3.2919922-3.2705078S33.1845703 2 35 2s3.2929688 1.4672852 3.2929688 3.2705078S36.8154297 8.5410156 35 8.5410156zM35 4c-.7128906 0-1.2919922.5698242-1.2919922 1.2705078S34.2871094 6.5410156 35 6.5410156s1.2929688-.5698242 1.2929688-1.2705078S35.7128906 4 35 4z"
     id="path5"
     style="stroke:#1f75fe;stroke-opacity:1;fill:#1f75fe;fill-opacity:1" />
  <g
     id="g6"
     style="stroke:#1f75fe;stroke-opacity:1;fill:#1f75fe;fill-opacity:1">
    <path
       d="M34.2783203,29.0478516c-2.2128906,0-4.0136719-1.7875977-4.0136719-3.9853516    c0-2.1972656,1.8007812-3.9848633,4.0136719-3.9848633c2.2138672,0,4.0146484,1.7875977,4.0146484,3.9848633    C38.2929688,27.2602539,36.4921875,29.0478516,34.2783203,29.0478516z M34.2783203,23.0776367    c-1.1103516,0-2.0136719,0.890625-2.0136719,1.9848633c0,1.0947266,0.9033203,1.9853516,2.0136719,1.9853516    c1.1113281,0,2.0146484-0.890625,2.0146484-1.9853516C36.2929688,23.9682617,35.3896484,23.0776367,34.2783203,23.0776367z"
       id="path6"
       style="stroke:#1f75fe;stroke-opacity:1;fill:#1f75fe;fill-opacity:1" />
  </g>
</svg>
