<?xml version="1.0" encoding="UTF-8" standalone="no"?>
<svg
   id="Layer_1"
   viewBox="0 0 1346.83 1346.8299"
   version="1.1"
   sodipodi:docname="Final-MANiBOT.svg"
   width="1346.83"
   height="1346.83"
   inkscape:version="1.4.1-rc (06eac75fbf, 2025-03-29)"
   xmlns:inkscape="http://www.inkscape.org/namespaces/inkscape"
   xmlns:sodipodi="http://sodipodi.sourceforge.net/DTD/sodipodi-0.dtd"
   xmlns="http://www.w3.org/2000/svg"
   xmlns:svg="http://www.w3.org/2000/svg">
  <sodipodi:namedview
     id="namedview25"
     pagecolor="#ffffff"
     bordercolor="#000000"
     borderopacity="0.25"
     inkscape:showpageshadow="2"
     inkscape:pageopacity="0.0"
     inkscape:pagecheckerboard="0"
     inkscape:deskcolor="#d1d1d1"
     inkscape:zoom="0.4495742"
     inkscape:cx="661.73726"
     inkscape:cy="482.67894"
     inkscape:window-width="1920"
     inkscape:window-height="1006"
     inkscape:window-x="0"
     inkscape:window-y="0"
     inkscape:window-maximized="1"
     inkscape:current-layer="Layer_1" />
  <defs
     id="defs1">
    <style
       id="style1">.cls-1{fill:#e5e9f2;}.cls-2{fill:#1a3260;}.cls-3{fill:#2f5597;}.cls-4{fill:#8c98af;}.cls-5{fill:#305697;}.cls-6{fill:#19315f;}.cls-7{fill:#315798;}.cls-8{fill:#1b3260;}.cls-9{fill:#d8dfec;}.cls-10{fill:#758cac;}.cls-11{fill:#1c3461;}</style>
  </defs>
  <path
     class="cls-6"
     d="m 933.32783,661.02039 c 0.98,0.83 1.95,1.64 2.91,2.47 7.21,6.29 12.95,13.69 16.67,22.54 4.21,9.99 5.8,20.44 4.14,31.12 -3.47,22.4 -16.57,36.81 -37.81,44.04 -3.18,1.08 -6.59,1.57 -9.92,2.13 -1.47,0.25 -3.02,-0.02 -4.53,-0.02 -27.98,0 -55.96,-0.02 -83.94,0.01 -4.96,0 -9.82,-0.88 -14.17,-3 -6.1,-2.97 -11.04,-7.51 -14.67,-13.38 -3.4,-5.49 -4.74,-11.5 -4.75,-17.86 -0.02,-17.26 0,-34.52 0,-51.79 0,-27.17 -0.01,-54.34 0.02,-81.51 0,-2.79 -0.05,-5.64 0.5,-8.35 0.51,-2.53 1.56,-5.02 2.74,-7.34 4.68,-9.19 11.8,-15.6 21.91,-18.24 2.66,-0.7 5.48,-1.05 8.23,-1.06 27.26,-0.08 54.52,-0.11 81.79,0.02 4.15,0.02 8.41,0.52 12.41,1.6 16.78,4.53 28.58,15.12 35.84,30.75 1.51,3.26 2.56,6.84 3.18,10.38 1.17,6.59 1.41,13.26 0.38,19.93 -2.28,14.82 -9.15,27.07 -20.45,36.88 -0.17,0.15 -0.27,0.38 -0.47,0.66 z m -118.32,14.66 c -0.17,0.13 -0.34,0.27 -0.51,0.4 -0.04,0.87 -0.11,1.75 -0.11,2.62 0,16.06 0,32.12 0,48.18 0,1.12 -0.04,2.24 0.05,3.35 0.24,2.96 2.5,5.39 5.44,5.86 0.86,0.14 1.75,0.16 2.63,0.16 26.86,0.01 53.71,0.04 80.57,0 2.52,0 5.11,-0.21 7.55,-0.81 9.26,-2.27 17.51,-10.04 19.46,-21.06 0.79,-4.45 0.28,-8.9 -0.78,-13.24 -3.41,-14 -17.11,-25.58 -32.77,-25.55 -26.54,0.05 -53.07,0.01 -79.61,0.02 -0.64,0 -1.28,0.05 -1.91,0.07 z m -0.63,-27.18 c 0.92,0.04 1.54,0.1 2.17,0.1 25.51,0 51.02,0.03 76.52,-0.04 2.75,0 5.58,-0.27 8.25,-0.92 10.68,-2.61 18.18,-9.28 23.19,-18.9 0.33,-0.63 0.62,-1.3 0.82,-1.98 0.88,-2.93 1.74,-5.82 2.11,-8.92 0.63,-5.26 0.15,-10.26 -2.25,-14.89 -5.06,-9.8 -13.12,-15.14 -24.31,-15.17 -26.15,-0.06 -52.29,-0.02 -78.44,-0.02 -0.72,0 -1.44,-0.01 -2.16,0.06 -2.65,0.27 -5.07,2.27 -5.67,4.82 -0.23,1 -0.23,2.06 -0.23,3.1 -0.01,16.79 0,33.57 0,50.36 v 2.41 z"
     id="path1" />
  <path
     class="cls-5"
     d="m 509.27783,671.68039 c 0,-24.78 0,-49.56 0,-74.34 0,-18.41 12.21,-32.9 30.43,-35.94 12.4,-2.07 23.67,0.49 33.43,8.67 5.14,4.31 8.73,9.7 11.14,15.93 17.89,46.25 35.79,92.48 53.71,138.72 0.78,2 1.66,3.98 2.7,5.86 1.96,3.57 5.03,5.42 9.15,5.6 3.26,0.14 6.37,-0.21 9.22,-1.97 1.66,-1.02 2.79,-2.39 3,-4.37 0.13,-1.27 0.27,-2.54 0.27,-3.81 0.01,-50.28 0.03,-100.56 -0.02,-150.83 0,-4.34 1.25,-7.97 4.41,-10.96 6.84,-6.44 18.65,-3.66 21.71,5.23 0.65,1.9 0.86,4.04 0.86,6.06 0.05,48.44 0.04,96.88 0.04,145.32 0,2.8 -0.04,5.6 0,8.39 0.18,10.48 -4.07,18.82 -12.21,25.29 -5.43,4.32 -11.57,7.09 -18.41,8.18 -10.09,1.61 -19.75,0.35 -28.53,-5.12 -7.2,-4.49 -12.28,-10.95 -15.56,-18.7 -3.45,-8.16 -6.62,-16.44 -9.79,-24.72 -12.33,-32.21 -24.59,-64.45 -36.94,-96.66 -2.77,-7.23 -5.82,-14.36 -8.66,-21.56 -2.69,-6.83 -9.01,-9.59 -16.28,-7.59 -4.34,1.2 -6.61,4.31 -6.7,8.81 -0.01,0.72 0,1.44 0,2.16 0,49.88 -0.01,99.76 0.02,149.63 0,3.86 -0.95,7.25 -3.6,10.1 -3.73,4.01 -9.49,5.33 -14.76,3.39 -5.1,-1.88 -8.5,-6.59 -8.62,-12.13 -0.09,-4.07 -0.03,-8.15 -0.03,-12.23 0,-22.14 0,-44.28 0,-66.42 z"
     id="path2" />
  <path
     class="cls-11"
     d="m 284.94783,698.39039 c -0.06,-3.97 -0.12,-7.94 -0.18,-11.9 3.25,-1.12 6.52,-2.18 9.73,-3.38 2.35,-0.88 4.31,-0.52 6.21,1.11 2.34,2.01 4.84,3.84 7.19,5.85 1.14,0.97 2.36,1.57 3.81,1.84 1.33,0.25 2.66,0.56 3.97,0.94 1.76,0.51 2.17,1.33 1.75,3.27 -0.47,2.18 -1.18,2.9 -2.98,2.56 -2.51,-0.48 -5.05,-0.96 -7.45,-1.8 -3.36,-1.17 -6.61,-2.68 -9.81,-4 -4.12,1.86 -8.18,3.69 -12.24,5.52 z"
     id="path3" />
  <path
     class="cls-3"
     d="m 325.55783,699.59039 c -0.04,0.88 -0.11,1.75 -0.11,2.63 0,15.51 0,31.01 0,46.52 0,3.01 -0.48,5.88 -2.17,8.45 -3.3,5.02 -9.17,7.22 -15.1,5.65 -5.58,-1.49 -9.49,-6.43 -9.84,-12.5 -0.05,-0.8 -0.03,-1.6 -0.03,-2.4 0,-31.81 -0.04,-63.62 0.04,-95.43 0.01,-5.02 0.13,-10.11 0.93,-15.05 2.35,-14.4 7.65,-27.65 16.62,-39.29 10.59,-13.74 23.48,-24.56 39.69,-31.16 6.55,-2.66 13.33,-4.52 20.32,-5.39 18.11,-2.24 35.82,-0.74 52.33,7.53 24.29,12.16 41.18,30.94 49.15,57.19 1.08,3.55 1.46,7.3 2.22,10.94 1.64,7.81 1.28,15.72 1.28,23.61 0.03,29.17 0.02,58.35 -0.02,87.52 0,1.82 -0.15,3.7 -0.64,5.44 -1.77,6.24 -8.12,10.23 -14.67,9.38 -6.75,-0.87 -11.78,-6.27 -11.85,-12.96 -0.09,-8.71 -0.02,-17.42 -0.02,-26.14 0,-7.35 0,-14.71 0,-22.06 0,-0.87 0,-1.74 0,-2.9 -1.05,-0.03 -1.98,-0.07 -2.9,-0.08 -37.98,0 -75.96,0 -113.94,0 -3.6,0 -7.19,0.05 -10.79,0.08 -0.17,0.13 -0.33,0.26 -0.5,0.4 z m 128.01,-27.51 c 0.05,-0.66 0.11,-1.13 0.11,-1.6 0,-6.87 0.08,-13.75 -0.04,-20.62 -0.14,-8.07 -1.54,-15.96 -5.06,-23.24 -10.46,-21.69 -27.1,-35.26 -51.46,-38.45 -5.98,-0.78 -11.95,-0.52 -17.87,0.34 -11.34,1.65 -21.4,6.3 -30.15,13.7 -14.72,12.45 -23.19,28.06 -23.62,47.59 -0.16,7.03 -0.04,14.06 -0.04,21.1 0,0.37 0.12,0.74 0.19,1.18 h 127.93 z"
     id="path4" />
  <path
     class="cls-2"
     d="m 1065.9479,560.95039 c 6.23,-0.32 12.47,-0.4 18.68,0.36 7.48,0.92 14.89,2.21 22.05,4.72 18.02,6.31 32.75,17.24 44.97,31.72 5.28,6.26 9.81,13.03 13.25,20.46 3.55,7.65 6.4,15.57 7.85,23.89 2.01,11.6 2.51,23.26 0.76,34.95 -0.92,6.21 -2.2,12.34 -4.27,18.29 -4.89,14.08 -12.71,26.32 -23.08,36.97 -9.81,10.08 -20.99,18.16 -34.05,23.55 -6.88,2.84 -13.98,4.8 -21.3,6.05 -10.2,1.74 -20.42,1.6 -30.7,0.64 -4.99,-0.47 -9.75,-1.8 -14.59,-2.84 -4.3,-0.93 -8.45,-2.36 -12.38,-4.18 -7.17,-3.31 -14.06,-7.2 -20.34,-12.07 -12.42,-9.63 -22.60007,-21.14 -30.00007,-35.07 -3.59,-6.75 -6.11,-13.86 -8,-21.23 -2.85,-11.12 -3.37,-22.42 -2.55,-33.82 0.11,-1.51 0.05,-3.03 0.16,-4.54 0.09,-1.32 0.18,-2.66 0.5,-3.94 1.45,-5.76 2.58,-11.65 4.58,-17.23 4.77,-13.34 12.32,-25.04 22.12004,-35.29 10.07003,-10.52 21.62003,-18.92 35.16003,-24.43 7.28,-2.96 14.8,-5.13 22.65,-6 2.53,-0.28 5.05,-0.63 7.58,-0.94 0.32,-0.01 0.64,-0.03 0.96,-0.04 z m 7.4,175.32 c 20.82,-0.06 38.26,-7.47 52.68,-21.97 16.51,-16.61 23.11,-36.75 21.07,-59.88 -1.55,-17.56 -8.88,-32.42 -21.29,-44.84 -14.51,-14.52 -32.05,-21.5 -52.57,-21.88 -39.35,-0.74 -74.86003,33.61 -74.52003,75.05 0.33,39.51 34.24003,74.43 74.62003,73.53 z"
     id="path5" />
  <path
     class="cls-6"
     d="m 1240.8579,587.75039 h -2.9 c -20.07,0 -40.14,-0.06 -60.21,0.04 -6.3,0.03 -10.89,-2.72 -13.54,-8.15 -1.78,-3.65 -1.55,-7.78 0.43,-11.49 2.55,-4.76 6.59,-7.26 12.06,-7.26 16.79,0 33.58,0 50.38,0 8.08,0 16.15,0 24.23,0 26.78,0 53.56,0.01 80.35,-0.02 4.11,0 7.7,1.14 10.46,4.25 3.43,3.87 4.57,8.24 2.76,13.28 -2.15,5.97 -6.66,9.33 -12.95,9.34 -20.31,0.02 -40.62,0 -60.93,0 h -2.98 v 161.13 c 0,2.32 -0.49,4.44 -1.33,6.68 -1.78,4.75 -7.95,8.36 -13.86,7.69 -7.29,-0.83 -11.99,-7.13 -11.94,-13.06 0,-0.8 0,-1.6 0,-2.4 0,-52.12 0,-104.23 0,-156.35 0,-1.11 0,-2.22 0,-3.69 z"
     id="path6" />
  <path
     class="cls-10"
     d="m 98.147833,721.65039 c 26.759997,0 53.529997,0.01 80.289997,0.02 0.32,0 0.64,-0.03 0.96,-0.05 8.61,0.02 17.21,0.02 25.82,0.07 3.64,0.02 6.21,1.83 7.25,5.11 0.26,0.81 0.33,1.72 0.33,2.58 0.03,4.3 -0.12,8.61 0.06,12.9 0.14,3.56 -1.8,6.98 -5.8,7.97 -0.23,0.06 -0.46,0.13 -0.68,0.2 -11.79,0 -23.59,0 -35.38,0 -21.1,0 -42.19,0 -63.29,0 -11.829994,0 -23.659994,0 -35.499994,0 -4.28,-0.07 -7.46,-3.14 -7.49,-7.95 -0.03,-4.23 -0.06,-8.47 0,-12.7 0.08,-5.27 3,-8.09 8.26,-8.1 8.39,-0.01 16.78,-0.02 25.169997,-0.03 z"
     id="path7" />
  <path
     class="cls-3"
     d="m 751.79783,682.32039 c 0,22.3 -0.02,44.6 0.02,66.91 0,3.15 -0.67,6.01 -2.58,8.54 -3.65,4.85 -9.49,6.71 -15.14,4.84 -5.55,-1.84 -9.25,-6.95 -9.26,-12.94 -0.02,-17.51 0,-35.01 0,-52.52 0,-27.42 0,-54.83 0,-82.25 0,-4.84 1.87,-8.73 5.87,-11.43 4.41,-2.97 9.21,-3.22 13.89,-0.84 4.71,2.39 7.21,6.43 7.21,11.82 0,21.1 0,42.21 0,63.31 0,1.52 0,3.04 0,4.56 z"
     id="path8" />
  <path
     class="cls-7"
     d="m 738.51783,587.86039 c -7.65,0 -13.61,-6.02 -13.59,-13.72 0.03,-7.56 6,-13.59 13.49,-13.61 7.52,-0.03 13.7,6.2 13.64,13.76 -0.06,7.51 -6.1,13.57 -13.55,13.58 z"
     id="path9" />
  <path
     class="cls-8"
     d="m 72.197836,750.43039 c 11.83,0 23.66,0 35.499994,0 -1.02,8.76 -6.17,13.96 -12.739994,15.92 -9.21,2.75 -18.43,-2.16 -21.71,-10.87 -0.61,-1.62 -1.31,-3.24 -1.05,-5.05 z"
     id="path10" />
  <path
     class="cls-8"
     d="m 170.98783,750.44039 c 11.79,0 23.59,0 35.38,0 -0.59,8.27 -7,14.45 -13.98,15.94 -11.34,2.42 -20.85,-6.22 -21.4,-15.95 z"
     id="path11" />
  <path
     class="cls-11"
     d="m 274.00783,704.23039 c 0.42,-0.18 0.84,-0.52 1.26,-0.51 3.49,0.08 6.22,-1.35 8.42,-3.98 0.25,-0.29 0.57,-0.52 0.86,-0.78 2.9,3.6 5.8,7.19 8.79,10.9 5.92,0.02 11.91,0.49 17.72,2.25 1.78,0.54 2.16,1.24 1.73,3.25 -0.49,2.28 -1.08,2.78 -2.97,2.48 -0.24,-0.04 -0.48,-0.08 -0.7,-0.16 -3.75,-1.4 -7.47,-1.13 -11.24,0 -1.9,0.57 -3.89,0.87 -5.83,1.31 -2.03,0.46 -3.81,0.03 -5.27,-1.47 -4.27,-4.42 -8.51,-8.86 -12.77,-13.29 z"
     id="path12" />
  <path
     class="cls-11"
     d="m 29.997836,724.00039 c 0.44,0.54 0.93,1.05 1.31,1.64 2.02,3.16 4.79,5.04 8.62,5.16 -2.58,1.72 -5.14,3.46 -7.74,5.16 -2.6,1.7 -5.28,3.29 -7.84,5.05 -2.13,1.46 -4.19,1.62 -6.49,0.41 -2.6,-1.38 -5.32,-2.54 -7.9499999,-3.87 -1.53,-0.78 -3.0799995,-1.19 -4.8099995,-1.08 -1.27,0.09 -2.55,0.07 -3.83,0 -1.76000003,-0.1 -2.36,-0.86 -2.38,-2.86 -0.03,-2.24 0.48999997,-3.09 2.4,-3.03 3.31,0.1 6.6399995,-0.52 9.9399994,0.58 1.98,0.65 4.14,0.76 6.23,1.02 1.2,0.15 2.27,-0.15 3.29,-0.99 3.02,-2.47 6.15,-4.8 9.24,-7.19 z"
     id="path13" />
  <path
     class="cls-11"
     d="m 29.997836,721.62039 c 0.44,-0.54 0.93,-1.05 1.31,-1.64 2.02,-3.16 4.79,-5.04 8.62,-5.16 -2.58,-1.72 -5.14,-3.46 -7.74,-5.16 -2.6,-1.7 -5.28,-3.29 -7.84,-5.05 -2.13,-1.46 -4.19,-1.62 -6.49,-0.41 -2.6,1.38 -5.32,2.54 -7.9499999,3.87 -1.53,0.78 -3.0799995,1.19 -4.8099995,1.08 -1.27,-0.09 -2.55,-0.07 -3.83,0 -1.76000003,0.1 -2.36,0.86 -2.38,2.86 -0.03,2.24 0.48999997,3.09 2.4,3.03 3.31,-0.1 6.6399995,0.52 9.9399994,-0.58 1.98,-0.65 4.14,-0.76 6.23,-1.02 1.2,-0.15 2.27,0.15 3.29,0.99 3.02,2.47 6.15,4.8 9.24,7.19 z"
     id="path14" />
  <path
     class="cls-4"
     d="m 1065.9479,560.95039 c -0.32,0.01 -0.64,0.03 -0.96,0.04 0.32,-0.01 0.64,-0.03 0.96,-0.04 z"
     id="path15" />
  <path
     class="cls-1"
     d="m 325.55783,699.59039 0.5,-0.4 c -0.17,0.13 -0.33,0.26 -0.5,0.4 z"
     id="path16" />
  <path
     class="cls-9"
     d="m 815.00783,675.68039 c -0.17,0.13 -0.34,0.27 -0.51,0.4 0.17,-0.13 0.34,-0.27 0.51,-0.4 z"
     id="path17" />
  <path
     class="cls-3"
     d="m 289.09783,688.92039 -82.56,-115 c -0.66,-0.87 -3.28,-0.55 -3.54,0.6 l -5.97,32.96 c -0.21,1.18 0.1,2.4 0.86,3.34 l 73.94,91.11 c 3.59,4.77 10.37,5.72 15.14,2.13 4.77,-3.59 5.72,-10.37 2.13,-15.14 z"
     id="path18" />
  <path
     class="cls-3"
     d="m 198.96783,567.72039 c -8.21,-3.23 -17.49,0.8 -20.72,9.01 l -55.88,140.15 c 1.82,-0.37 37.41,-1.32 38.77,5.2 l 46.84,-133.64 c 3.23,-8.21 -0.8,-17.49 -9.01,-20.72 z"
     id="path19" />
  <path
     class="cls-3"
     d="m 29.427836,718.10039 39.39,-139.99 c 0.42,1.53 1.81,1.75 2.72,3.15 l 17.76,30.61 -39.2,112.61 c -1.76,5.71 -7.81,8.91 -13.52,7.15 -5.71,-1.76 -8.91,-7.81 -7.15,-13.52 z"
     id="path20" />
  <path
     class="cls-3"
     d="m 87.447836,612.04039 -17.38,-29.94 c -0.06,-0.1 -0.12,-0.19 -0.18,-0.28 l -38.84,136.74 c 0,0 0,0.03 -0.01,0.04 -1.48,4.81 1.23,9.92 6.03,11.41 2.33,0.72 4.8,0.48 6.95,-0.65 2.15,-1.14 3.74,-3.05 4.46,-5.38 l 38.97,-111.93 z"
     id="path21" />
  <path
     class="cls-3"
     d="m 78.297836,567.72039 c 8.21,-3.23 17.49,0.8 20.719997,9.01 l 55.879997,140.15 c -1.82,-0.37 -37.41,-1.32 -38.77,5.2 l -46.839994,-133.64 c -3.23,-8.21 0.8,-17.49 9.01,-20.72 z"
     id="path22" />
  <path
     class="cls-3"
     d="m 102.47783,711.66039 h 72.62 c 2.37,0 4.3,1.93 4.3,4.3 v 5.66 H 98.177833 v -5.66 c 0,-2.37 1.929997,-4.3 4.299997,-4.3 z"
     id="path23" />
  <path
     class="cls-10"
     d="m 201.34783,583.28039 c 0.2,5.07 -3.34,8.18 -8.02,8.18 -4.99,0 -8.07,-3.39 -8.28,-8.14 -0.2,-4.45 3.89,-8.45 8.36,-8.41 3.52,0.03 8.34,3.02 7.94,8.37 z"
     id="path24" />
  <path
     class="cls-10"
     d="m 75.557836,582.34039 c 0.01,-4.76 3.33,-7.88 8.19,-8 4.36,-0.1 7.99,3.35 8.17,8.16 0.15,4.18 -4.04,8.37 -8.21,8.22 -4.68,-0.16 -8.49,-3.71 -8.14,-8.38 z"
     id="path25" />
</svg>
