<?xml version="1.0" encoding="UTF-8" standalone="no"?>
<svg
   xml:space="preserve"
   id="finger-print"
   x="0"
   y="0"
   enable-background="new 0 0 24 24"
   version="1.1"
   viewBox="0 0 24 24"
   sodipodi:docname="finger-print.svg"
   inkscape:version="1.4.1-rc (06eac75fbf, 2025-03-29)"
   xmlns:inkscape="http://www.inkscape.org/namespaces/inkscape"
   xmlns:sodipodi="http://sodipodi.sourceforge.net/DTD/sodipodi-0.dtd"
   xmlns="http://www.w3.org/2000/svg"
   xmlns:svg="http://www.w3.org/2000/svg"><defs
   id="defs5" /><sodipodi:namedview
   id="namedview5"
   pagecolor="#ffffff"
   bordercolor="#000000"
   borderopacity="0.25"
   inkscape:showpageshadow="2"
   inkscape:pageopacity="0.0"
   inkscape:pagecheckerboard="0"
   inkscape:deskcolor="#d1d1d1"
   inkscape:zoom="34.416667"
   inkscape:cx="11.985472"
   inkscape:cy="12"
   inkscape:window-width="1920"
   inkscape:window-height="1006"
   inkscape:window-x="0"
   inkscape:window-y="0"
   inkscape:window-maximized="1"
   inkscape:current-layer="finger-print" />
  <path
   fill="#5c6a74"
   d="M16,3H8C6.621,3,5.5,4.121,5.5,5.5v13C5.5,19.879,6.621,21,8,21h8c1.379,0,2.5-1.121,2.5-2.5v-13  C18.5,4.121,17.379,3,16,3z"
   id="path1"
   style="fill:#0144ab;fill-opacity:1" />
  <path
   fill="#2e3b41"
   d="M12,5.5c-2.137,0-3.875,1.738-3.875,3.875v6.531c0,1.431,1.163,2.594,2.594,2.594h2.563  c1.431,0,2.594-1.163,2.594-2.594V9.375C15.875,7.238,14.137,5.5,12,5.5z"
   id="path2"
   style="fill:#1f75fe;fill-opacity:1" />
  <path
   fill="#c0baae"
   d="M12.781,15.31c-0.276,0-0.5-0.224-0.5-0.5v-2.594c0-0.276,0.224-0.5,0.5-0.5s0.5,0.224,0.5,0.5v2.594    C13.281,15.086,13.058,15.31,12.781,15.31z"
   id="path3"
   style="fill:#9fc4ff;fill-opacity:1" />
  <path
   fill="#c0baae"
   d="M12,8.69c-0.637,0-1.144,0.476-1.242,1.086c-0.025,0.06-0.04,0.126-0.04,0.195v2.76v0.964  c0,0.276,0.224,0.5,0.5,0.5s0.5-0.224,0.5-0.5v-0.964v-2.76c0-0.155,0.126-0.281,0.281-0.281s0.281,0.126,0.281,0.281v0.545  c0,0.276,0.224,0.5,0.5,0.5s0.5-0.224,0.5-0.5V9.972C13.281,9.266,12.706,8.69,12,8.69z"
   id="path4"
   style="fill:#9fc4ff;fill-opacity:1" />
  <path
   fill="#a5a196"
   d="M13.188 16.844h-2.375c-.729 0-1.323-.594-1.323-1.323v-2.536c0-.276.224-.5.5-.5s.5.224.5.5v2.536c0 .179.145.323.323.323h2.375c.179 0 .323-.145.323-.323 0-.276.224-.5.5-.5s.5.224.5.5C14.511 16.25 13.917 16.844 13.188 16.844zM14.011 12.751c-.276 0-.5-.224-.5-.5V9.667c0-.833-.678-1.511-1.511-1.511s-1.511.678-1.511 1.511c0 .276-.224.5-.5.5s-.5-.224-.5-.5c0-1.385 1.126-2.511 2.511-2.511s2.511 1.126 2.511 2.511v2.584C14.511 12.527 14.287 12.751 14.011 12.751z"
   id="path5"
   style="fill:#a1c5fe;fill-opacity:1" />
</svg>
