<?xml version="1.0" encoding="UTF-8" standalone="no"?>
<svg
   enable-background="new 0 0 50 50"
   viewBox="0 0 50 50"
   id="man-vs-robot"
   version="1.1"
   sodipodi:docname="man-vs-robot.svg"
   inkscape:version="1.4.1-rc (06eac75fbf, 2025-03-29)"
   xmlns:inkscape="http://www.inkscape.org/namespaces/inkscape"
   xmlns:sodipodi="http://sodipodi.sourceforge.net/DTD/sodipodi-0.dtd"
   xmlns="http://www.w3.org/2000/svg"
   xmlns:svg="http://www.w3.org/2000/svg">
  <defs
     id="defs14" />
  <sodipodi:namedview
     id="namedview14"
     pagecolor="#ffffff"
     bordercolor="#000000"
     borderopacity="0.25"
     inkscape:showpageshadow="2"
     inkscape:pageopacity="0.0"
     inkscape:pagecheckerboard="0"
     inkscape:deskcolor="#d1d1d1"
     inkscape:zoom="16.52"
     inkscape:cx="25.030266"
     inkscape:cy="25"
     inkscape:window-width="1920"
     inkscape:window-height="1006"
     inkscape:window-x="0"
     inkscape:window-y="0"
     inkscape:window-maximized="1"
     inkscape:current-layer="man-vs-robot" />
  <path
     fill="#E4E4E3"
     d="M29.3,15.7c0,0,0.9,0.7,0.3,2.9c0,0,7.7,10.6,8,14.4c0,0,1.5-0.4,2.8-3.1c0,0,3.6-6.4,6.5-6.6    c0,0,0.6-0.1,1.1-0.7c0.3-0.3,0.8-0.1,0.8,0.3c0,22,0.8,10.9-3.1,18.5c-0.5,1.1-1.3,2-2.3,2.7c-1,0.7-2.3,1.3-3.5,1.1    c-0.7-0.1-1.4-0.2-2.1-0.2c-1.9,0-5.6-0.9-8.6-6.7c0,0-3.4-9.3-3.7-12c0,0-0.6-5.2-1.1-6.1L27,16L29.3,15.7z"
     id="path1" />
  <path
     fill="#C7C7C7"
     d="M37.7,33c0,0-5.4,2.8-8.4-4.6l-3-11.1l-0.2-0.8l0.5,0.3l3.1,1.8C29.7,18.6,37.4,29.1,37.7,33z"
     id="path2" />
  <circle
     cx="38.7"
     cy="43.2"
     r="2.6"
     fill="#696967"
     id="circle2"
     style="fill:#1f75fe;fill-opacity:1" />
  <path
     fill="#FFCA67"
     d="M23.7,24.7c0.4-1.3,2.2-4.6,3.1-6.1c0.3-0.5,0.8-0.8,1.4-1c2.8-0.6,4.9-3.7,4.9-3.7    c1.5-1.2-0.4-2.5-0.4-2.5c1.2-1.8-1-2.5-1-2.5C33.1,8.1,32.3,7,32.3,7c-0.7-1.2-1.8-0.7-1.8-0.7c1.8-2.1-2.9-3.8-3.9-1l-1.6,0.2    c-4.3,6.6-4.5,6.8-4.8,8.1c-0.5,2.6-2.8,6.9-2.8,6.9s-8,9.9-11.8,12.3c0,0-4.6,3.2-4.6,4.5l9.3,8.9C10.3,46.2,21,34.4,23.7,24.7z"
     id="path3" />
  <circle
     cx="38.7"
     cy="43.2"
     r="1.4"
     fill="#E4E4E3"
     id="circle3" />
  <path
     fill="#C7C7C7"
     d="M29.3 38.4c-.1-.3-1.4-3.8-2.4-7.1 3.9 1.1.9 4.6 6.3 4.3C34.6 37.5 31.2 39.7 29.3 38.4zM49 30.1v7.4c0 .1-.1.3-.2.4-.3.2-.8.6-1.5 1.4l-3-1.4c-.6-.3-.8-1.1-.4-1.6L49 30.1z"
     id="path4"
     style="fill:#6ea6fe;fill-opacity:1" />
  <path
     fill="#696967"
     d="M33.8,27.6l1.4,2.4c0.3,0.6,0.2,1.3-0.4,1.7c-0.6,0.3-1.3,0.2-1.7-0.4l-1.4-2.4c-0.3-0.6-0.2-1.3,0.4-1.7    C32.8,26.8,33.5,27,33.8,27.6z"
     id="path5"
     style="fill:#1f75fe;fill-opacity:1" />
  <path
     fill="#F5B948"
     d="M30.4 6.3c-.2.4-.9.8-1.3.9C29.4 6.9 30 6.4 30.4 6.3zM31.7 8.8c-.6.5-1.9 1-2.7 1.2C29.7 9.6 31 9 31.7 8.8zM32.8 11.4c-.5.4-1.6 1-2.2 1.1C31.1 12.1 32.1 11.5 32.8 11.4zM23.1 20C22 26 18.3 33.9 14 35.2 17.7 33.1 20.9 25.1 23.1 20z"
     id="path6" />
  <path
     fill="#D2D2D2"
     d="M26.1 14.4l-1.1-1c-.3-.3-.4-.8-.1-1.2.3-.3.8-.4 1.2-.1l1.1 1c.3.3.4.8.1 1.2C27 14.7 26.5 14.7 26.1 14.4zM22.9 11.6L21.6 11c-.4-.2-.6-.7-.4-1.1.2-.4.7-.6 1.1-.4l1.3.6c.4.2.6.7.4 1.1C23.8 11.6 23.3 11.7 22.9 11.6z"
     id="path7" />
  <path
     fill="#B4B4B0"
     d="M24.5,13.1L23.2,12c-0.4-0.4-0.4-1-0.1-1.4c0.4-0.4,1-0.4,1.4-0.1l1.3,1.1c0.4,0.4,0.4,1,0.1,1.4     C25.5,13.5,24.9,13.5,24.5,13.1z"
     id="path8" />
  <path
     fill="#E4E4E3"
     d="M29.4 10.7l-1.1-1c-.4-.3-.4-.9-.1-1.2.3-.4.9-.4 1.2-.1l1.1 1c.4.3.4.9.1 1.2C30.3 11 29.7 11.1 29.4 10.7zM26 7.8l-1.4-.6C24.1 7 23.9 6.5 24.1 6c.2-.4.7-.6 1.1-.5l1.4.6c.4.2.6.7.5 1.1C26.9 7.7 26.4 7.9 26 7.8z"
     id="path9" />
  <path
     fill="#C7C7C7"
     d="M27.6,9.4l-1.4-1.2c-0.4-0.4-0.5-1-0.1-1.5c0.4-0.4,1-0.5,1.5-0.1L29,7.9c0.4,0.4,0.5,1,0.1,1.5     C28.7,9.8,28,9.8,27.6,9.4z"
     id="path10" />
  <path
     fill="#E4E4E3"
     d="M27.4 13.3l-1.1-1c-.4-.3-.4-.9-.1-1.2.3-.4.9-.4 1.2-.1l1.1 1c.4.3.4.9.1 1.2C28.3 13.6 27.8 13.7 27.4 13.3zM24 10.4l-1.4-.6c-.4-.2-.7-.7-.5-1.2.2-.4.7-.6 1.1-.5l1.4.6c.4.2.6.7.5 1.1C25 10.3 24.5 10.5 24 10.4z"
     id="path11" />
  <path
     fill="#D2D2D2"
     d="M28.8 12.4L27.2 11c-.4-.3-.4-.9-.1-1.2.3-.4.9-.4 1.2-.1l1.5 1.4c.4.3.4.9.1 1.2C29.7 12.6 29.1 12.7 28.8 12.4zM25 9l-1.4-.6c-.4-.2-.7-.7-.5-1.2.2-.4.7-.6 1.1-.5l1.4.6c.4.2.6.7.5 1.1C25.9 9 25.4 9.2 25 9z"
     id="path12" />
  <path
     fill="#B4B4B0"
     d="M26.6,10.7l-1.4-1.2c-0.4-0.4-0.5-1-0.1-1.5c0.4-0.4,1-0.5,1.5-0.1L28,9.1c0.4,0.4,0.5,1,0.1,1.5     C27.7,11,27,11,26.6,10.7z"
     id="path13" />
  <path
     fill="#C7C7C7"
     d="M25.7,12l-1.4-1.2c-0.4-0.4-0.5-1-0.1-1.5c0.4-0.4,1-0.5,1.5-0.1l1.4,1.2c0.4,0.4,0.5,1,0.1,1.5     C26.8,12.4,26.1,12.4,25.7,12z"
     id="path14" />
</svg>
