<?xml version="1.0" encoding="UTF-8" standalone="no"?>
<svg
   enable-background="new 0 0 70 70"
   viewBox="0 0 70 70"
   id="robot-arm"
   version="1.1"
   sodipodi:docname="robot-armorange.svg"
   inkscape:version="1.4.1-rc (06eac75fbf, 2025-03-29)"
   xmlns:inkscape="http://www.inkscape.org/namespaces/inkscape"
   xmlns:sodipodi="http://sodipodi.sourceforge.net/DTD/sodipodi-0.dtd"
   xmlns="http://www.w3.org/2000/svg"
   xmlns:svg="http://www.w3.org/2000/svg">
  <defs
     id="defs1" />
  <sodipodi:namedview
     id="namedview1"
     pagecolor="#ffffff"
     bordercolor="#000000"
     borderopacity="0.25"
     inkscape:showpageshadow="2"
     inkscape:pageopacity="0.0"
     inkscape:pagecheckerboard="0"
     inkscape:deskcolor="#d1d1d1"
     inkscape:zoom="11.8"
     inkscape:cx="35.042373"
     inkscape:cy="35"
     inkscape:window-width="1920"
     inkscape:window-height="1006"
     inkscape:window-x="0"
     inkscape:window-y="0"
     inkscape:window-maximized="1"
     inkscape:current-layer="robot-arm" />
  <path
     d="M53.2172852,57.2783203c0,2.5761719,2.7631836,4.6728516,6.159668,4.6728516h5.3725586c0.5522461,0,1-0.4472656,1-1v-8.1503906V37.3105469v-8.1494141c0-0.5527344-0.4477539-1-1-1h-5.3725586c-3.4541016,0-6.159668,2.0498047-6.159668,4.6669922v4.4824219v2.0480957L40.4692383,51.2470703c-0.0521851,0.0487061-0.0800171,0.1107788-0.1193848,0.1669922c-0.7855225-0.1553345-1.6072388-0.1911011-2.4436035-0.0722656c-0.3963623,0.0566406-0.7802734,0.1517944-1.1552124,0.2687378l-7.2834473-2.7232056c-0.2841187-1.5828857-1.1363525-2.9805908-2.4299927-3.9508057c-0.8553467-0.6412964-1.8362427-1.0460815-2.8642578-1.1990356v-2.4135132l2.3862305-0.001709c0.3925781,0,0.7480469-0.2294922,0.9101563-0.5869141l1.8398438-4.0576172c0.1000977-0.2207031,0.1166992-0.4707031,0.0463867-0.703125l-1.0571899-3.4873047h11.1260376c2.246582,0,4.0742188-1.8066406,4.0742188-4.0263672s-1.8276367-4.0263672-4.0742188-4.0263672h-6.6394653c0.4135742-0.656189,0.6624146-1.4265747,0.6624146-2.2578125v-3.3105469h2.434082c1.0507813,0,1.953125-0.7246094,2.1948242-1.7617188l1.453125-6.2441406c0.1611328-0.6923828,0.0009766-1.4072266-0.4384766-1.9609375c-0.4301758-0.5419922-1.0703125-0.8525391-1.7563477-0.8525391h-3.887207V5.0986328c0-0.5527344-0.4477539-1-1-1H14.2827148c-0.5522461,0-1,0.4472656-1,1v17.078125c0,0.8312378,0.2488403,1.6016235,0.6624146,2.2578125H8.3242188c-2.2460938,0-4.0737305,1.8066406-4.0737305,4.0263672s1.8276367,4.0263672,4.0737305,4.0263672h9.7272339l-1.0597534,3.4863281c-0.0708008,0.2324219-0.0546875,0.4833984,0.0458984,0.7041016l1.8432617,4.0625c0.1621094,0.3574219,0.5180664,0.5869141,0.9106445,0.5869141h0.0004883l2.3813477-0.001709v2.4372559c-1.6102905,0.2717285-3.0322876,1.1312256-4.015625,2.4423828c-1.0161133,1.3554688-1.4438477,3.0253906-1.2041016,4.703125c0.4511719,3.1591797,3.171875,5.4453125,6.2753906,5.4453125c0.2973633,0,0.5981445-0.0205078,0.9008789-0.0634766c0.1558838-0.0223389,0.3070068-0.0563965,0.4584351-0.0895386l7.104187,3.3479614c0.0031738,0.0239258,0.0032959,0.0477295,0.0067139,0.0716553c0.5209961,3.6445313,3.6582031,6.2822266,7.2382813,6.2822266c0.3427734,0,0.6899414-0.0244141,1.0390625-0.0742188c3.9936523-0.5712891,6.7783203-4.2851563,6.2075195-8.2783203c-0.0036011-0.0252686-0.0106201-0.0491333-0.0144653-0.0742798l7.0476685-6.1520386v1.4772949V57.2783203z M37.3349609,10.046875c0.09375,0,0.1547852,0.0517578,0.1899414,0.0957031c0.0341797,0.0429688,0.0869141,0.1347656,0.0566406,0.2646484l-1.453125,6.2441406c-0.0292969,0.1259766-0.1308594,0.2148438-0.246582,0.2148438h-2.434082V10.046875H37.3349609z M15.2827148,22.1767578V6.0986328h16.1650391V9.046875v8.8193359v4.3105469c0,1.2451172-1.0126953,2.2578125-2.2578125,2.2578125H17.5405273C16.2954102,24.4345703,15.2827148,23.421875,15.2827148,22.1767578z M6.2504883,28.4609375c0-1.1171875,0.9301758-2.0263672,2.0737305-2.0263672h9.2163086h11.6494141h10.2348633c1.1435547,0,2.0742188,0.9091797,2.0742188,2.0263672s-0.9306641,2.0263672-2.0742188,2.0263672H8.3242188C7.1806641,30.4873047,6.2504883,29.578125,6.2504883,28.4609375z M19.0146484,36.1943359l1.12677-3.7070313h6.0674438l1.1236572,3.7070313l-1.418457,3.1279297l-5.4785156,0.0048828L19.0146484,36.1943359z M59.3769531,59.9511719c-2.2548828,0-4.159668-1.2236328-4.159668-2.6728516v-3.4775391h8.5322266v6.1503906H59.3769531z M55.2172852,49.194519c0.0005493-0.0067749-0.0003662-0.0132446,0-0.0200806v-9.3353271c0.0006104-0.0119019-0.0001831-0.0231323,0-0.0350342v-1.4935303h8.5322266v13.4902344h-8.5322266V49.194519z M59.3769531,30.1611328h4.3725586v6.1494141h-8.5322266V32.828125C55.2172852,31.3828125,57.1220703,30.1611328,59.3769531,30.1611328z M18.9331055,50.625c-0.1640625-1.1484375,0.1289063-2.2919922,0.824707-3.2197266c0.6962891-0.9287109,1.7119141-1.5292969,2.8603516-1.6933594c0.2084961-0.0302734,0.4169922-0.0449219,0.6240234-0.0449219c0.9326172,0,1.8359375,0.2998047,2.5957031,0.8691406c0.9282227,0.6962891,1.5292969,1.7119141,1.6938477,2.8603516c0.3383789,2.3701172-1.3144531,4.5742188-3.6845703,4.9130859C21.4736328,54.6542969,19.2724609,52.9960938,18.9331055,50.625z M29.4924316,51.0314331l4.8983765,1.8314819c-0.4818115,0.3845825-0.9228516,0.8262329-1.3024292,1.3323975c-0.7096558,0.9464111-1.1660767,2.0269165-1.3580322,3.1606445l-4.7440796-2.2357178C28.3088989,54.1450195,29.2229004,52.6782837,29.4924316,51.0314331z M39.6933594,63.8476563c-2.8969727,0.4130859-5.5991211-1.6083984-6.0146484-4.5107422c-0.2006836-1.4052734,0.1577148-2.8056641,1.0097656-3.9414063c0.8520508-1.1367188,2.0952148-1.8730469,3.5009766-2.0732422c0.253418-0.0361328,0.5053711-0.0537109,0.7548828-0.0537109c2.6010742,0,4.8813477,1.9160156,5.2602539,4.5644531C44.6191406,60.734375,42.5957031,63.4326172,39.6933594,63.8476563z M45.5199585,55.3884888c-0.675293-1.3868408-1.7719116-2.5048218-3.0994873-3.2259521l10.796814-10.0687256v6.5755615L45.5199585,55.3884888z"
     id="path1"
     style="fill:#ff6a3d;fill-opacity:1" />
</svg>
